<?xml version="1.0" standalone="yes"?>

<svg version="1.1" viewBox="0.0 0.0 960.0 720.0" fill="none" stroke="none" stroke-linecap="square" stroke-miterlimit="10" xmlns="http://www.w3.org/2000/svg" xmlns:xlink="http://www.w3.org/1999/xlink"><clipPath id="p.0"><path d="m0 0l960.0 0l0 720.0l-960.0 0l0 -720.0z" clip-rule="nonzero"></path></clipPath><g clip-path="url(#p.0)"><path fill="#000000" fill-opacity="0.0" d="m0 0l960.0 0l0 720.0l-960.0 0z" fill-rule="nonzero"></path><path fill="#ff0000" d="m301.53543 188.74107l61.72873 15.432175l0 119.681274l-61.72873 15.43219z" fill-rule="nonzero"></path><path stroke="#ff0000" stroke-width="2.0" stroke-linejoin="round" stroke-linecap="butt" d="m301.53543 188.74107l61.72873 15.432175l0 119.681274l-61.72873 15.43219z" fill-rule="nonzero"></path><path fill="#ff0000" d="m561.0407 161.88408l-177.67233 41.340805l0 121.578l177.67233 41.34082z" fill-rule="nonzero"></path><path stroke="#ff0000" stroke-width="2.0" stroke-linejoin="round" stroke-linecap="butt" d="m561.0407 161.88408l-177.67233 41.340805l0 121.578l177.67233 41.34082z" fill-rule="nonzero"></path><path fill="#cc0000" d="m362.79214 203.226l20.576233 0l0 121.56935l-20.576233 0z" fill-rule="nonzero"></path><path stroke="#cc0000" stroke-width="2.0" stroke-linejoin="round" stroke-linecap="butt" d="m362.79214 203.226l20.576233 0l0 121.56935l-20.576233 0z" fill-rule="nonzero"></path><path fill="#e06666" d="m562.22833 367.13254l-168.59842 -40.21399l168.59842 -166.02222z" fill-rule="nonzero"></path><path stroke="#e06666" stroke-width="2.0" stroke-linejoin="round" stroke-linecap="butt" d="m562.22833 367.13254l-168.59842 -40.21399l168.59842 -166.02222z" fill-rule="nonzero"></path></g></svg>

